HIERARCHY
ROOT Hips
{
  OFFSET -33.9132 29.2015 117.021
  CHANNELS 6 Xposition Yposition Zposition Zrotation Xrotation Yrotation
  JOINT LeftUpLeg
  {
    OFFSET 8.64259 1.95398 -2.38835
    CHANNELS 3 Zrotation Xrotation Yrotation
    JOINT LeftLeg
    {
      OFFSET 43.7702 0 0
      CHANNELS 3 Zrotation Xrotation Yrotation
      JOINT LeftFoot
      {
        OFFSET 40.6238 0 0
        CHANNELS 3 Zrotation Xrotation Yrotation
        JOINT LeftToeBase
        {
          OFFSET 12.7242 0 0
          CHANNELS 3 Zrotation Xrotation Yrotation
          End Site
          {
            OFFSET 0 0 0
          }
        }
      }
    }
  }
  JOINT RightUpLeg
  {
    OFFSET -8.2249 1.95398 -2.59336
    CHANNELS 3 Zrotation Xrotation Yrotation
    JOINT RightLeg
    {
      OFFSET 43.5653 0 0
      CHANNELS 3 Zrotation Xrotation Yrotation
      JOINT RightFoot
      {
        OFFSET 40.6238 0 0
        CHANNELS 3 Zrotation Xrotation Yrotation
        JOINT RightToeBase
        {
          OFFSET 12.7242 0 0
          CHANNELS 3 Zrotation Xrotation Yrotation
          End Site
          {
            OFFSET 0 0 0
          }
        }
      }
    }
  }
  JOINT Spine
  {
    OFFSET 0.165834 0.87714 6.61349
    CHANNELS 3 Zrotation Xrotation Yrotation
    JOINT Spine1
    {
      OFFSET 7.38963 1.71661e-005 0
      CHANNELS 3 Zrotation Xrotation Yrotation
      JOINT Spine2
      {
        OFFSET 11.9445 1.14441e-005 0
        CHANNELS 3 Zrotation Xrotation Yrotation
        JOINT Spine3
        {
          OFFSET 14.7254 4.19617e-005 0
          CHANNELS 3 Zrotation Xrotation Yrotation
          JOINT Spine4
          {
            OFFSET 10.9679 0 0
            CHANNELS 3 Zrotation Xrotation Yrotation
            JOINT RightShoulder
            {
              OFFSET 2.46616 -1.6653 3.69651
              CHANNELS 3 Zrotation Xrotation Yrotation
              JOINT RightArm
              {
                OFFSET 13.0012 0 0
                CHANNELS 3 Zrotation Xrotation Yrotation
                JOINT RightForeArm
                {
                  OFFSET 28.7848 1.62311e-005 0
                  CHANNELS 3 Zrotation Xrotation Yrotation
                  JOINT RightHand
                  {
                    OFFSET 26.5688 1.62095e-005 0
                    CHANNELS 3 Zrotation Xrotation Yrotation
                    End Site
                    {
                      OFFSET 0 0 0
                    }
                  }
                }
              }
            }
            JOINT LeftShoulder
            {
              OFFSET 2.38034 -1.29275 -3.7523
              CHANNELS 3 Zrotation Xrotation Yrotation
              JOINT LeftArm
              {
                OFFSET 16.3182 6.07031e-005 0
                CHANNELS 3 Zrotation Xrotation Yrotation
                JOINT LeftForeArm
                {
                  OFFSET 27.0901 0 0
                  CHANNELS 3 Zrotation Xrotation Yrotation
                  JOINT LeftHand
                  {
                    OFFSET 24.5451 1.51738e-005 0
                    CHANNELS 3 Zrotation Xrotation Yrotation
                    End Site
                    {
                      OFFSET 0 0 0
                    }
                  }
                }
              }
            }
            JOINT Neck
            {
              OFFSET 5.0226 -0.0266342 0
              CHANNELS 3 Zrotation Xrotation Yrotation
              JOINT Head
              {
                OFFSET 6.69364 2.86102e-005 0
                CHANNELS 3 Zrotation Xrotation Yrotation
                End Site
                {
                  OFFSET 0 0 0
                }
              }
            }
          }
        }
      }
    }
  }
}
MOTION
Frames:	9
Frame Time:	0.0416667
-271.367 87.1616 251.773 95.3322 45.1469 100.082 -164.899 -30.2492 99.9774 -7.12277 -0.409185 1.50678 82.8278 17.1234 -1.3049 40.5794 0.139543 16.5936 173.735 32.5684 106.234 -37.8102 -18.3162 7.00307 64.5724 -1.77869 -0.925147 16.6946 3.96484 4.6243 -1.47607 7.73555 -92.2173 11.3184 -3.96989 -4.02003 -0.352202 -4.14283 -3.84154 -22.8616 -2.57991 -5.02554 -2.84895 -2.57991 -5.02554 94.0052 -30.0953 -98.7136 41.8045 13.2698 18.9762 -3.67561 -9.71316 -4.89199 -5.80654 0.290955 -12.1122 -89.4855 -51.9837 79.8985 -26.5294 -11.4601 -19.6048 -10.1859 31.0045 -0.0169036 19.6235 0.191061 -2.92422 -6.47337 6.66941 -2.34119 -7.32105 6.42934 10.9077 
-265.333 86.0161 245.434 96.9523 42.0567 100.467 -164.371 -25.5606 101.126 -25.2587 -0.223927 1.25202 73.365 9.3174 -0.556205 51.9561 7.10449 17.1083 173.642 31.1056 109.527 -49.2544 -19.7845 5.46373 71.1933 -7.29776 -2.86219 21.9647 1.76764 4.43169 -1.04903 7.6499 -92.4967 11.4854 -3.25341 -4.64246 -0.189266 -3.45436 -4.49509 -22.6695 -1.71013 -5.40353 -2.65685 -1.71014 -5.40355 92.5262 -29.7716 -101.789 40.8482 13.1222 17.2725 -3.77317 -12.045 -4.89763 -4.84623 0.238958 -12.4029 -90.1323 -54.836 79.5325 -26.925 -9.715 -15.2656 -11.7476 27.8869 -0.0163921 14.0924 0.163139 -4.16602 -7.09012 6.95076 2.60285 -7.85978 6.34015 9.18356 
-260.263 85.613 239.897 99.4222 41.8917 98.1006 -165.589 -13.8044 102.614 -52.1167 12.9451 2.08471 60.7677 0.840866 0.0200949 28.6925 -4.44122 9.10745 173.958 26.0957 108.688 -54.8173 -20.505 4.57133 76.7273 -12.2336 -5.20703 22.6475 0.879739 6.39075 -0.851968 7.77749 -92.4522 11.2387 -2.83618 -4.60359 -0.436781 -3.03583 -4.47461 -22.9142 -1.32367 -5.24142 -2.90149 -1.32365 -5.24142 92.8038 -28.6574 -101.574 41.3113 11.7095 10.6475 -3.84709 -13.7985 -4.90533 -9.08638 0.41796 -11.073 -90.1658 -55.9669 79.7063 -24.9745 -12.0067 -10.5915 -10.9352 27.3328 -0.0163094 11.2442 1.16263 2.61084 -5.34073 7.11501 6.87922 -7.42799 6.16897 7.03849 
-256.237 86.399 235.559 99.3188 43.7841 96.8957 -170.323 3.33724 101.438 -79.0597 22.6202 4.0805 58.6828 -1.04786 -0.0679931 12.774 -10.891 5.09833 174.303 21.505 107.286 -54.9077 -19.6581 3.9695 79.8019 -15.0652 -5.84315 22.6382 1.19947 5.34754 -0.407387 7.76696 -92.1773 11.2861 -1.8244 -4.15422 -0.389947 -2.00533 -4.0701 -22.873 -0.493019 -4.50972 -2.8603 -0.493018 -4.50973 92.9017 -27.4194 -101.761 42.7796 10.1852 5.28199 -3.69993 -10.2936 -4.8927 -11.8005 0.621114 -11.682 -88.7039 -53.2548 81.2769 -22.547 -13.6237 -6.93142 -10.2613 25.7478 -0.0160856 13.8303 0.676292 -0.438743 -2.50474 5.15199 6.79925 -6.5635 4.14772 5.41793 
-252.525 88.9507 231.253 99.4436 45.2509 93.0048 -174.39 19.0261 96.0663 -93.4666 11.5546 4.34927 61.6537 1.0005 2.23573 6.55154 -13.9908 4.03777 174.438 14.9261 102.617 -50.051 -18.8911 3.22573 79.7883 -14.871 -4.70179 24.6534 0.352502 5.41889 0.217335 7.84883 -91.5875 11.1613 -0.304882 -3.13027 -0.513329 -0.442276 -3.11386 -23.019 0.649531 -3.07733 -3.00636 0.649546 -3.07734 92.9692 -25.0224 -102.423 44.5447 8.72508 1.47771 -3.56166 -6.96066 -4.8904 -14.9508 0.655526 -10.5188 -88.2733 -52.1442 81.7042 -18.742 -15.336 -9.00013 -9.65221 27.8864 -0.016392 15.6921 0.805089 0.209855 -3.06894 1.70006 5.52744 -5.07203 1.00415 3.04495 
-248.409 94.0137 226.644 103.194 45.5839 85.244 -175.005 27.1089 89.2907 -92.7917 0.319818 4.21943 66.7586 4.47801 3.81239 0.43271 -17.323 3.43473 174.336 5.47678 96.7828 -42.0939 -22.2399 1.4506 69.6452 -7.49697 -5.57731 30.0919 -2.62497 8.87184 0.841603 8.25164 -90.7895 10.3769 1.31506 -1.68486 -1.29449 1.23967 -1.7411 -23.83 1.76062 -1.21177 -3.81738 1.76061 -1.21178 91.9504 -26.2137 -104.184 43.1432 8.86388 -0.00808494 -3.74752 -11.4368 -4.89617 -18.6949 0.863636 -10.7401 -88.381 -50.5032 81.2461 -17.0051 -16.8253 -10.7693 -8.95584 27.124 -0.0162788 15.3968 0.49007 -1.56136 -7.61468 -1.53359 -0.152391 -3.00451 -1.53811 2.45097 
-244.017 98.9633 222.034 105.226 44.7645 79.8631 -176.595 30.8154 84.3679 -83.8213 -0.394608 3.68002 70.4128 6.73085 3.79498 5.17938 -16.3898 6.09579 176.307 0.488725 93.8063 -37.62 -21.2918 -2.20091 58.4734 1.59588 -1.8246 23.8785 -0.472379 9.71767 1.21007 8.53075 -90.1142 9.81792 2.3604 -0.413285 -1.85096 2.33993 -0.516831 -24.4033 2.37541 0.315633 -4.39068 2.37541 0.315629 92.014 -24.9508 -104.53 44.6296 7.81065 -2.02803 -3.79602 -12.5896 -4.89986 -15.2866 1.2923 -15.344 -88.0755 -47.2612 81.0942 -17.0402 -15.1596 -9.68415 -9.23142 29.2133 -0.0165999 12.965 0.596239 -0.829268 -12.7885 -2.50676 -4.54559 -1.65025 -2.37846 0.136156 
-239.426 102.132 216.675 104.138 40.4657 77.8603 -176.58 31.6259 81.6546 -72.1338 4.1726 2.18311 76.157 10.6353 2.79743 4.70342 -14.8923 3.7231 177.453 -1.6079 91.7401 -38.0572 -25.978 -5.37447 55.2894 3.76817 0.347397 19.2787 2.09049 6.86734 1.63266 8.58708 -89.6109 9.69572 3.43067 0.501786 -1.97077 3.44944 0.350119 -24.5364 3.12114 1.51057 -4.52378 3.12115 1.51057 91.8286 -23.8716 -105.344 46.398 6.58709 -4.07748 -3.82846 -13.359 -4.90282 -12.7655 1.15357 -16.1284 -88.1933 -48.1282 81.08 -13.2346 -11.7139 -5.62819 -10.8399 28.6115 -0.0165039 14.2777 0.840155 0.849682 -16.6474 -2.29014 -4.56011 -0.360427 -2.37579 -1.90843 
-235.216 103.747 211.339 102.023 39.356 78.5839 -179.574 32.1128 80.5027 -58.3975 4.22731 2.43769 78.8201 12.156 1.31501 9.47858 -12.2447 4.06557 175.484 -3.28849 90.6743 -29.9176 -29.5511 -3.17951 54.7107 3.84826 3.88301 26.6098 0.460254 2.00692 1.65825 8.47592 -89.4162 9.91056 3.5701 0.868667 -1.75567 3.60489 0.710494 -24.3207 3.14386 1.90235 -4.30803 3.14389 1.90234 91.4032 -24.5853 -105.987 47.506 5.60665 -5.88668 -3.90009 -15.0426 -4.91131 -14.4281 1.19433 -15.1547 -88.07 -49.5977 81.5451 -12.5124 -13.3873 -3.76692 -10.5845 29.5379 -0.0166529 16.2251 1.05612 1.7455 -16.4958 -2.26537 -4.42599 -1.91941 -2.31862 -1.39688 
